<?xml version="1.0" encoding="UTF-8" standalone="no"?><svg xmlns="http://www.w3.org/2000/svg" xmlns:xlink="http://www.w3.org/1999/xlink" contentScriptType="application/ecmascript" contentStyleType="text/css" height="605px" preserveAspectRatio="none" style="width:526px;height:605px;" version="1.1" viewBox="0 0 526 605" width="526px" zoomAndPan="magnify"><defs><filter height="300%" id="frf75vnrsz2jy" width="300%" x="-1" y="-1"><feGaussianBlur result="blurOut" stdDeviation="2.0"/><feColorMatrix in="blurOut" result="blurOut2" type="matrix" values="0 0 0 0 0 0 0 0 0 0 0 0 0 0 0 0 0 0 .4 0"/><feOffset dx="4.0" dy="4.0" in="blurOut2" result="blurOut3"/><feBlend in="SourceGraphic" in2="blurOut3" mode="normal"/></filter></defs><g><!--MD5=[3fd616f346a44cd59a91eb10b19e157c]
class User--><rect fill="#FEFECE" filter="url(#frf75vnrsz2jy)" height="99.2188" id="User" style="stroke: #A80036; stroke-width: 1.5;" width="115" x="316" y="8"/><ellipse cx="355.3" cy="24" fill="#A9DCDF" rx="11" ry="11" style="stroke: #A80036; stroke-width: 1.0;"/><path d="M355.4094,19.3438 L354.2531,24.4219 L356.5813,24.4219 L355.4094,19.3438 Z M353.925,17.1094 L356.9094,17.1094 L360.2688,29.5 L357.8156,29.5 L357.05,26.4375 L353.7688,26.4375 L353.0188,29.5 L350.5813,29.5 L353.925,17.1094 Z "/><text fill="#000000" font-family="sans-serif" font-size="12" font-style="italic" lengthAdjust="spacingAndGlyphs" textLength="29" x="374.7" y="28.1543">User</text><line style="stroke: #A80036; stroke-width: 1.5;" x1="317" x2="430" y1="40" y2="40"/><rect fill="none" height="6" style="stroke: #C82930; stroke-width: 1.0;" width="6" x="324" y="48"/><text fill="#000000" font-family="sans-serif" font-size="11" lengthAdjust="spacingAndGlyphs" text-decoration="underline" textLength="60" x="336" y="54.2104">id{PK}: int</text><ellipse cx="327" cy="63.8047" fill="none" rx="3" ry="3" style="stroke: #038048; stroke-width: 1.0;"/><text fill="#000000" font-family="sans-serif" font-size="11" lengthAdjust="spacingAndGlyphs" textLength="70" x="336" y="67.0151">nom : string</text><ellipse cx="327" cy="76.6094" fill="none" rx="3" ry="3" style="stroke: #038048; stroke-width: 1.0;"/><text fill="#000000" font-family="sans-serif" font-size="11" lengthAdjust="spacingAndGlyphs" textLength="89" x="336" y="79.8198">prenom : string</text><ellipse cx="327" cy="89.4141" fill="none" rx="3" ry="3" style="stroke: #038048; stroke-width: 1.0;"/><text fill="#000000" font-family="sans-serif" font-size="11" lengthAdjust="spacingAndGlyphs" textLength="76" x="336" y="92.6245">email : string</text><line style="stroke: #A80036; stroke-width: 1.5;" x1="317" x2="430" y1="99.2188" y2="99.2188"/><!--MD5=[b4aadecf988f7558dc8337b9b0bba2ff]
class Licencié--><rect fill="#FEFECE" filter="url(#frf75vnrsz2jy)" height="73.6094" id="Licencié" style="stroke: #A80036; stroke-width: 1.5;" width="134" x="168.5" y="174"/><ellipse cx="206.9" cy="190" fill="#ADD1B2" rx="11" ry="11" style="stroke: #A80036; stroke-width: 1.0;"/><path d="M209.8688,195.6406 Q209.2906,195.9375 208.65,196.0859 Q208.0094,196.2344 207.3063,196.2344 Q204.8063,196.2344 203.4859,194.5859 Q202.1656,192.9375 202.1656,189.8125 Q202.1656,186.6875 203.4859,185.0313 Q204.8063,183.375 207.3063,183.375 Q208.0094,183.375 208.6578,183.5313 Q209.3063,183.6875 209.8688,183.9844 L209.8688,186.7031 Q209.2438,186.125 208.65,185.8516 Q208.0563,185.5781 207.4313,185.5781 Q206.0875,185.5781 205.4,186.6484 Q204.7125,187.7188 204.7125,189.8125 Q204.7125,191.9063 205.4,192.9766 Q206.0875,194.0469 207.4313,194.0469 Q208.0563,194.0469 208.65,193.7734 Q209.2438,193.5 209.8688,192.9219 L209.8688,195.6406 Z "/><text fill="#000000" font-family="sans-serif" font-size="12" lengthAdjust="spacingAndGlyphs" textLength="50" x="226.1" y="194.1543">Licencié</text><line style="stroke: #A80036; stroke-width: 1.5;" x1="169.5" x2="301.5" y1="206" y2="206"/><rect fill="none" height="6" style="stroke: #C82930; stroke-width: 1.0;" width="6" x="176.5" y="214"/><text fill="#000000" font-family="sans-serif" font-size="11" lengthAdjust="spacingAndGlyphs" textLength="93" x="188.5" y="220.2104">password:string</text><ellipse cx="179.5" cy="229.8047" fill="none" rx="3" ry="3" style="stroke: #038048; stroke-width: 1.0;"/><text fill="#000000" font-family="sans-serif" font-size="11" lengthAdjust="spacingAndGlyphs" textLength="108" x="188.5" y="233.0151">date_adhéré : date</text><line style="stroke: #A80036; stroke-width: 1.5;" x1="169.5" x2="301.5" y1="239.6094" y2="239.6094"/><!--MD5=[fd8f06804651a767af6d5ee4693cdfe7]
class Coach--><rect fill="#FEFECE" filter="url(#frf75vnrsz2jy)" height="48" id="Coach" style="stroke: #A80036; stroke-width: 1.5;" width="71" x="338" y="187"/><ellipse cx="353" cy="203" fill="#ADD1B2" rx="11" ry="11" style="stroke: #A80036; stroke-width: 1.0;"/><path d="M355.9688,208.6406 Q355.3906,208.9375 354.75,209.0859 Q354.1094,209.2344 353.4063,209.2344 Q350.9063,209.2344 349.5859,207.5859 Q348.2656,205.9375 348.2656,202.8125 Q348.2656,199.6875 349.5859,198.0313 Q350.9063,196.375 353.4063,196.375 Q354.1094,196.375 354.7578,196.5313 Q355.4063,196.6875 355.9688,196.9844 L355.9688,199.7031 Q355.3438,199.125 354.75,198.8516 Q354.1563,198.5781 353.5313,198.5781 Q352.1875,198.5781 351.5,199.6484 Q350.8125,200.7188 350.8125,202.8125 Q350.8125,204.9063 351.5,205.9766 Q352.1875,207.0469 353.5313,207.0469 Q354.1563,207.0469 354.75,206.7734 Q355.3438,206.5 355.9688,205.9219 L355.9688,208.6406 Z "/><text fill="#000000" font-family="sans-serif" font-size="12" lengthAdjust="spacingAndGlyphs" textLength="39" x="367" y="207.1543">Coach</text><line style="stroke: #A80036; stroke-width: 1.5;" x1="339" x2="408" y1="219" y2="219"/><line style="stroke: #A80036; stroke-width: 1.5;" x1="339" x2="408" y1="227" y2="227"/><!--MD5=[db6d18d8099558415abc41d00477ab92]
class Admin--><rect fill="#FEFECE" filter="url(#frf75vnrsz2jy)" height="48" id="Admin" style="stroke: #A80036; stroke-width: 1.5;" width="70" x="444.5" y="187"/><ellipse cx="459.5" cy="203" fill="#ADD1B2" rx="11" ry="11" style="stroke: #A80036; stroke-width: 1.0;"/><path d="M462.4688,208.6406 Q461.8906,208.9375 461.25,209.0859 Q460.6094,209.2344 459.9063,209.2344 Q457.4063,209.2344 456.0859,207.5859 Q454.7656,205.9375 454.7656,202.8125 Q454.7656,199.6875 456.0859,198.0313 Q457.4063,196.375 459.9063,196.375 Q460.6094,196.375 461.2578,196.5313 Q461.9063,196.6875 462.4688,196.9844 L462.4688,199.7031 Q461.8438,199.125 461.25,198.8516 Q460.6563,198.5781 460.0313,198.5781 Q458.6875,198.5781 458,199.6484 Q457.3125,200.7188 457.3125,202.8125 Q457.3125,204.9063 458,205.9766 Q458.6875,207.0469 460.0313,207.0469 Q460.6563,207.0469 461.25,206.7734 Q461.8438,206.5 462.4688,205.9219 L462.4688,208.6406 Z "/><text fill="#000000" font-family="sans-serif" font-size="12" lengthAdjust="spacingAndGlyphs" textLength="38" x="473.5" y="207.1543">Admin</text><line style="stroke: #A80036; stroke-width: 1.5;" x1="445.5" x2="513.5" y1="219" y2="219"/><line style="stroke: #A80036; stroke-width: 1.5;" x1="445.5" x2="513.5" y1="227" y2="227"/><!--MD5=[9c44bef4398b9b819e757c850646d09b]
class Salle--><rect fill="#FEFECE" filter="url(#frf75vnrsz2jy)" height="86.4141" id="Salle" style="stroke: #A80036; stroke-width: 1.5;" width="150" x="365.5" y="495"/><ellipse cx="421.25" cy="511" fill="#ADD1B2" rx="11" ry="11" style="stroke: #A80036; stroke-width: 1.0;"/><path d="M424.2188,516.6406 Q423.6406,516.9375 423,517.0859 Q422.3594,517.2344 421.6563,517.2344 Q419.1563,517.2344 417.8359,515.5859 Q416.5156,513.9375 416.5156,510.8125 Q416.5156,507.6875 417.8359,506.0313 Q419.1563,504.375 421.6563,504.375 Q422.3594,504.375 423.0078,504.5313 Q423.6563,504.6875 424.2188,504.9844 L424.2188,507.7031 Q423.5938,507.125 423,506.8516 Q422.4063,506.5781 421.7813,506.5781 Q420.4375,506.5781 419.75,507.6484 Q419.0625,508.7188 419.0625,510.8125 Q419.0625,512.9063 419.75,513.9766 Q420.4375,515.0469 421.7813,515.0469 Q422.4063,515.0469 423,514.7734 Q423.5938,514.5 424.2188,513.9219 L424.2188,516.6406 Z "/><text fill="#000000" font-family="sans-serif" font-size="12" lengthAdjust="spacingAndGlyphs" textLength="30" x="441.75" y="515.1543">Salle</text><line style="stroke: #A80036; stroke-width: 1.5;" x1="366.5" x2="514.5" y1="527" y2="527"/><rect fill="none" height="6" style="stroke: #C82930; stroke-width: 1.0;" width="6" x="373.5" y="535"/><text fill="#000000" font-family="sans-serif" font-size="11" lengthAdjust="spacingAndGlyphs" text-decoration="underline" textLength="64" x="385.5" y="541.2104">idSalle : int</text><rect fill="none" height="6" style="stroke: #C82930; stroke-width: 1.0;" width="6" x="373.5" y="547.8047"/><text fill="#000000" font-family="sans-serif" font-size="11" lengthAdjust="spacingAndGlyphs" textLength="124" x="385.5" y="554.0151">valider_location : bool</text><rect fill="none" height="6" style="stroke: #C82930; stroke-width: 1.0;" width="6" x="373.5" y="560.6094"/><text fill="#000000" font-family="sans-serif" font-size="11" lengthAdjust="spacingAndGlyphs" textLength="94" x="385.5" y="566.8198">disponible : bool</text><line style="stroke: #A80036; stroke-width: 1.5;" x1="366.5" x2="514.5" y1="573.4141" y2="573.4141"/><!--MD5=[2f41d73d49bbbf278d6f24d654fa6f5b]
class Licence--><rect fill="#FEFECE" filter="url(#frf75vnrsz2jy)" height="86.4141" id="Licence" style="stroke: #A80036; stroke-width: 1.5;" width="127" x="6" y="168"/><ellipse cx="42.6" cy="184" fill="#ADD1B2" rx="11" ry="11" style="stroke: #A80036; stroke-width: 1.0;"/><path d="M45.5688,189.6406 Q44.9906,189.9375 44.35,190.0859 Q43.7094,190.2344 43.0063,190.2344 Q40.5063,190.2344 39.1859,188.5859 Q37.8656,186.9375 37.8656,183.8125 Q37.8656,180.6875 39.1859,179.0313 Q40.5063,177.375 43.0063,177.375 Q43.7094,177.375 44.3578,177.5313 Q45.0063,177.6875 45.5688,177.9844 L45.5688,180.7031 Q44.9438,180.125 44.35,179.8516 Q43.7563,179.5781 43.1313,179.5781 Q41.7875,179.5781 41.1,180.6484 Q40.4125,181.7188 40.4125,183.8125 Q40.4125,185.9063 41.1,186.9766 Q41.7875,188.0469 43.1313,188.0469 Q43.7563,188.0469 44.35,187.7734 Q44.9438,187.5 45.5688,186.9219 L45.5688,189.6406 Z "/><text fill="#000000" font-family="sans-serif" font-size="12" lengthAdjust="spacingAndGlyphs" textLength="47" x="61.4" y="188.1543">Licence</text><line style="stroke: #A80036; stroke-width: 1.5;" x1="7" x2="132" y1="200" y2="200"/><text fill="#000000" font-family="sans-serif" font-size="11" lengthAdjust="spacingAndGlyphs" textLength="115" x="12" y="214.2104">num_licence : string</text><text fill="#000000" font-family="sans-serif" font-size="11" lengthAdjust="spacingAndGlyphs" textLength="100" x="12" y="227.0151">date_debut : date</text><text fill="#000000" font-family="sans-serif" font-size="11" lengthAdjust="spacingAndGlyphs" textLength="82" x="12" y="239.8198">date_fin : date</text><line style="stroke: #A80036; stroke-width: 1.5;" x1="7" x2="132" y1="246.4141" y2="246.4141"/><!--MD5=[ff3a8aed502725303aa06bf63b1d539a]
class Entrainement--><rect fill="#FEFECE" filter="url(#frf75vnrsz2jy)" height="73.6094" id="Entrainement" style="stroke: #A80036; stroke-width: 1.5;" width="117" x="331" y="331"/><ellipse cx="346" cy="347" fill="#ADD1B2" rx="11" ry="11" style="stroke: #A80036; stroke-width: 1.0;"/><path d="M348.9688,352.6406 Q348.3906,352.9375 347.75,353.0859 Q347.1094,353.2344 346.4063,353.2344 Q343.9063,353.2344 342.5859,351.5859 Q341.2656,349.9375 341.2656,346.8125 Q341.2656,343.6875 342.5859,342.0313 Q343.9063,340.375 346.4063,340.375 Q347.1094,340.375 347.7578,340.5313 Q348.4063,340.6875 348.9688,340.9844 L348.9688,343.7031 Q348.3438,343.125 347.75,342.8516 Q347.1563,342.5781 346.5313,342.5781 Q345.1875,342.5781 344.5,343.6484 Q343.8125,344.7188 343.8125,346.8125 Q343.8125,348.9063 344.5,349.9766 Q345.1875,351.0469 346.5313,351.0469 Q347.1563,351.0469 347.75,350.7734 Q348.3438,350.5 348.9688,349.9219 L348.9688,352.6406 Z "/><text fill="#000000" font-family="sans-serif" font-size="12" lengthAdjust="spacingAndGlyphs" textLength="85" x="360" y="351.1543">Entrainement</text><line style="stroke: #A80036; stroke-width: 1.5;" x1="332" x2="447" y1="363" y2="363"/><ellipse cx="342" cy="374" fill="none" rx="3" ry="3" style="stroke: #038048; stroke-width: 1.0;"/><text fill="#000000" font-family="sans-serif" font-size="11" lengthAdjust="spacingAndGlyphs" textLength="69" x="351" y="377.2104">debut : date</text><ellipse cx="342" cy="386.8047" fill="none" rx="3" ry="3" style="stroke: #038048; stroke-width: 1.0;"/><text fill="#000000" font-family="sans-serif" font-size="11" lengthAdjust="spacingAndGlyphs" textLength="51" x="351" y="390.0151">fin : date</text><line style="stroke: #A80036; stroke-width: 1.5;" x1="332" x2="447" y1="396.6094" y2="396.6094"/><!--MD5=[347d84873f807cba40499bed1f526e46]
class Prêt--><rect fill="#FEFECE" filter="url(#frf75vnrsz2jy)" height="112.0234" id="Prêt" style="stroke: #A80036; stroke-width: 1.5;" width="222" x="108.5" y="482"/><ellipse cx="202.25" cy="498" fill="#ADD1B2" rx="11" ry="11" style="stroke: #A80036; stroke-width: 1.0;"/><path d="M205.2188,503.6406 Q204.6406,503.9375 204,504.0859 Q203.3594,504.2344 202.6563,504.2344 Q200.1563,504.2344 198.8359,502.5859 Q197.5156,500.9375 197.5156,497.8125 Q197.5156,494.6875 198.8359,493.0313 Q200.1563,491.375 202.6563,491.375 Q203.3594,491.375 204.0078,491.5313 Q204.6563,491.6875 205.2188,491.9844 L205.2188,494.7031 Q204.5938,494.125 204,493.8516 Q203.4063,493.5781 202.7813,493.5781 Q201.4375,493.5781 200.75,494.6484 Q200.0625,495.7188 200.0625,497.8125 Q200.0625,499.9063 200.75,500.9766 Q201.4375,502.0469 202.7813,502.0469 Q203.4063,502.0469 204,501.7734 Q204.5938,501.5 205.2188,500.9219 L205.2188,503.6406 Z "/><text fill="#000000" font-family="sans-serif" font-size="12" lengthAdjust="spacingAndGlyphs" textLength="26" x="222.75" y="502.1543">Prêt</text><line style="stroke: #A80036; stroke-width: 1.5;" x1="109.5" x2="329.5" y1="514" y2="514"/><ellipse cx="119.5" cy="525" fill="none" rx="3" ry="3" style="stroke: #038048; stroke-width: 1.0;"/><text fill="#000000" font-family="sans-serif" font-size="11" lengthAdjust="spacingAndGlyphs" textLength="100" x="128.5" y="528.2104">date_début : date</text><ellipse cx="119.5" cy="537.8047" fill="none" rx="3" ry="3" style="stroke: #038048; stroke-width: 1.0;"/><text fill="#000000" font-family="sans-serif" font-size="11" lengthAdjust="spacingAndGlyphs" textLength="82" x="128.5" y="541.0151">date_fin : date</text><ellipse cx="119.5" cy="550.6094" fill="none" rx="3" ry="3" style="stroke: #038048; stroke-width: 1.0;"/><text fill="#000000" font-family="sans-serif" font-size="11" lengthAdjust="spacingAndGlyphs" textLength="101" x="128.5" y="553.8198">date_rendu : date</text><ellipse cx="119.5" cy="563.4141" fill="none" rx="3" ry="3" style="stroke: #038048; stroke-width: 1.0;"/><text fill="#000000" font-family="sans-serif" font-size="11" lengthAdjust="spacingAndGlyphs" textLength="196" x="128.5" y="566.6245">matériel/logiciel_emprunté : string</text><rect fill="none" height="6" style="stroke: #C82930; stroke-width: 1.0;" width="6" x="116.5" y="573.2188"/><text fill="#000000" font-family="sans-serif" font-size="11" lengthAdjust="spacingAndGlyphs" textLength="72" x="128.5" y="579.4292">status : bool</text><line style="stroke: #A80036; stroke-width: 1.5;" x1="109.5" x2="329.5" y1="586.0234" y2="586.0234"/><!--MD5=[745f45ea248759ab401c04deb3778f3f]
reverse link User to Licencié--><path d="M315.1726,122.3786 C299.4671,139.8482 283.0056,158.1587 269.1497,173.5709 " fill="none" id="User&lt;-Licencié" style="stroke: #A80036; stroke-width: 1.0;"/><polygon fill="none" points="310.1185,117.5302,328.6954,107.3371,320.5297,126.8901,310.1185,117.5302" style="stroke: #A80036; stroke-width: 1.0;"/><!--MD5=[84c8e329f1de27bcd6739df5c751467a]
reverse link User to Coach--><path d="M373.5,127.6553 C373.5,148.8564 373.5,170.7336 373.5,186.7516 " fill="none" id="User&lt;-Coach" style="stroke: #A80036; stroke-width: 1.0;"/><polygon fill="none" points="366.5001,127.3371,373.5,107.3371,380.5001,127.337,366.5001,127.3371" style="stroke: #A80036; stroke-width: 1.0;"/><!--MD5=[933987b91d2b08b1b4941f3221fa6cec]
reverse link User to Admin--><path d="M419.4481,124.038 C434.8513,146.3436 451.0634,169.8207 462.7552,186.7516 " fill="none" id="User&lt;-Admin" style="stroke: #A80036; stroke-width: 1.0;"/><polygon fill="none" points="413.5198,127.7721,407.9152,107.3371,425.04,119.8168,413.5198,127.7721" style="stroke: #A80036; stroke-width: 1.0;"/><!--MD5=[d5298a9911a0de4e84d762b3b9babf64]
link Licence to Licencié--><path d="M133.0469,211 C140.384,211 147.7212,211 155.0583,211 " fill="none" id="Licence-&gt;Licencié" style="stroke: #A80036; stroke-width: 1.0;"/><polygon fill="#A80036" points="168.2651,211,162.2651,207,156.2651,211,162.2651,215,168.2651,211" style="stroke: #A80036; stroke-width: 1.0;"/><text fill="#000000" font-family="sans-serif" font-size="13" lengthAdjust="spacingAndGlyphs" textLength="8" x="140.857" y="207.1834">1</text><text fill="#000000" font-family="sans-serif" font-size="13" lengthAdjust="spacingAndGlyphs" textLength="8" x="152.4738" y="207.2752">1</text><!--MD5=[1ee6f53212e5d07fc7d263fcabc651c8]
link Licence to Coach--><path d="M114.5471,167.931 C130.2382,155.6547 148.7624,143.8865 168,137.5 C224.5223,118.7359 247.1363,114.3302 302,137.5 C321.0031,145.5253 337.4521,161.3442 349.7658,176.2571 " fill="none" id="Licence-&gt;Coach" style="stroke: #A80036; stroke-width: 1.0;"/><polygon fill="#A80036" points="357.9787,186.8315,357.4574,179.6393,350.618,177.3542,351.1392,184.5464,357.9787,186.8315" style="stroke: #A80036; stroke-width: 1.0;"/><text fill="#000000" font-family="sans-serif" font-size="13" lengthAdjust="spacingAndGlyphs" textLength="8" x="113.089" y="156.916">1</text><text fill="#000000" font-family="sans-serif" font-size="13" lengthAdjust="spacingAndGlyphs" textLength="8" x="344.9764" y="175.8004">1</text><!--MD5=[cbf37120a7a94df11f786d2f06b7ce98]
link Licencié to Prêt--><path d="M233.6802,248.1927 C230.8872,305.2745 225.5245,414.8734 222.254,481.7148 " fill="none" id="Licencié-Prêt" style="stroke: #A80036; stroke-width: 1.0;"/><text fill="#000000" font-family="sans-serif" font-size="13" lengthAdjust="spacingAndGlyphs" textLength="61" x="231.5" y="372.5669">demande</text><polygon fill="#000000" points="257.5,381.6328,260.5,387.6328,263.5,381.6328,257.5,381.6328" style="stroke: #000000; stroke-width: 1.0;"/><text fill="#000000" font-family="sans-serif" font-size="13" lengthAdjust="spacingAndGlyphs" textLength="24" x="207.3913" y="267.7052">0..n</text><text fill="#000000" font-family="sans-serif" font-size="13" lengthAdjust="spacingAndGlyphs" textLength="24" x="197.1271" y="471.0145">0..n</text><!--MD5=[77c218f7a6128182f11bae99f5572ad1]
link Entrainement to Prêt--><path d="M352.1928,405.3072 C329.8106,427.6894 300.9052,456.5948 275.7894,481.7106 " fill="none" id="Entrainement-Prêt" style="stroke: #A80036; stroke-width: 1.0;"/><polygon fill="#000000" points="341.5,446,344.5,440,347.5,446,341.5,446" style="stroke: #000000; stroke-width: 1.0;"/><text fill="#000000" font-family="sans-serif" font-size="13" lengthAdjust="spacingAndGlyphs" textLength="49" x="321.5" y="461.0669">affecter</text><text fill="#000000" font-family="sans-serif" font-size="13" lengthAdjust="spacingAndGlyphs" textLength="24" x="320.3345" y="424.557">0..n</text><text fill="#000000" font-family="sans-serif" font-size="13" lengthAdjust="spacingAndGlyphs" textLength="24" x="257.1872" y="471.0098">1..n</text><!--MD5=[c167626a8418c8d1886a21d3436353bf]
link Coach to Entrainement--><path d="M375.9649,235.1872 C378.5684,260.7337 382.7059,301.3325 385.7216,330.9245 " fill="none" id="Coach-Entrainement" style="stroke: #A80036; stroke-width: 1.0;"/><text fill="#000000" font-family="sans-serif" font-size="13" lengthAdjust="spacingAndGlyphs" textLength="91" x="383.5" y="297.0669">planifier/editer</text><polygon fill="#000000" points="424.5,306.1328,427.5,312.1328,430.5,306.1328,424.5,306.1328" style="stroke: #000000; stroke-width: 1.0;"/><text fill="#000000" font-family="sans-serif" font-size="13" lengthAdjust="spacingAndGlyphs" textLength="8" x="367.5907" y="254.994">1</text><text fill="#000000" font-family="sans-serif" font-size="13" lengthAdjust="spacingAndGlyphs" textLength="7" x="377.3796" y="319.821">*</text><!--MD5=[cfd2f557e200f3e7496b9cf7e8690a5c]
link Entrainement to Salle--><path d="M400.6922,405.3072 C408.609,431.6967 419.2463,467.1543 427.5332,494.7772 " fill="none" id="Entrainement-Salle" style="stroke: #A80036; stroke-width: 1.0;"/><text fill="#000000" font-family="sans-serif" font-size="13" lengthAdjust="spacingAndGlyphs" textLength="32" x="413.5" y="448.0669">louer</text><polygon fill="#000000" points="425,457.1328,428,463.1328,431,457.1328,425,457.1328" style="stroke: #000000; stroke-width: 1.0;"/><text fill="#000000" font-family="sans-serif" font-size="13" lengthAdjust="spacingAndGlyphs" textLength="7" x="394.9181" y="424.557">*</text><text fill="#000000" font-family="sans-serif" font-size="13" lengthAdjust="spacingAndGlyphs" textLength="24" x="399.7102" y="484.0556">0..1</text><!--MD5=[d6c74343a59c31abfb43a497876f797b]
@startuml
abstract User{
  -{static} id{PK}: int
  +nom : string
  +prenom : string
  +email : string
  }
class Licencié{
  -password:string
  +date_adhéré : date
  }

class Coach{
  }

class Admin{}

class Salle{
  -{static}idSalle : int
  -valider_location : bool
  -disponible : bool
}

class Licence{
  num_licence : string
  date_debut : date
  date_fin : date
}

class Entrainement{
  +debut : date
  +fin : date
  }

class Prêt{
  +date_début : date
  +date_fin : date
  +date_rendu : date
  +matériel/logiciel_emprunté : string
  -status : bool
}

User <|- - Licencié
User <|- - Coach
User <|- - Admin

Licence "1"-*"1" Licencié
Licence  "1"-*"1" Coach

Licencié "0..n"- -"0..n" Prêt : demande >
Entrainement "0..n"- -"1..n" Prêt : < affecter
Coach "1"- -"*" Entrainement : planifier/editer >
Entrainement "*"- -"0..1" Salle : louer >
@enduml

PlantUML version 1.2019.12(Sun Nov 03 10:24:54 UTC 2019)
(GPL source distribution)
Java Runtime: OpenJDK Runtime Environment
JVM: OpenJDK 64-Bit Server VM
Java Version: 1.8.0_232-heroku-b09
Operating System: Linux
Default Encoding: UTF-8
Language: en
Country: US
--></g></svg>