<?xml version="1.0" encoding="UTF-8" standalone="no"?><svg xmlns="http://www.w3.org/2000/svg" xmlns:xlink="http://www.w3.org/1999/xlink" contentScriptType="application/ecmascript" contentStyleType="text/css" height="1772px" preserveAspectRatio="none" style="width:1541px;height:1772px;" version="1.1" viewBox="0 0 1541 1772" width="1541px" zoomAndPan="magnify"><defs><filter height="300%" id="f1tjkpyojzif02" width="300%" x="-1" y="-1"><feGaussianBlur result="blurOut" stdDeviation="2.0"/><feColorMatrix in="blurOut" result="blurOut2" type="matrix" values="0 0 0 0 0 0 0 0 0 0 0 0 0 0 0 0 0 0 .4 0"/><feOffset dx="4.0" dy="4.0" in="blurOut2" result="blurOut3"/><feBlend in="SourceGraphic" in2="blurOut3" mode="normal"/></filter></defs><g><!--MD5=[5f2b5a8f9a9f3c33fd825406bf136bef]
cluster Club Esport--><rect fill="#FFFFFF" filter="url(#f1tjkpyojzif02)" height="1293" style="stroke: #000000; stroke-width: 1.5;" width="1363" x="167" y="176.3802"/><text fill="#000000" font-family="sans-serif" font-size="14" font-weight="bold" lengthAdjust="spacingAndGlyphs" textLength="91" x="803" y="191.3753">Club Esport</text><ellipse cx="385.8631" cy="320.2528" fill="#FEFECE" filter="url(#f1tjkpyojzif02)" rx="127.3631" ry="27.8726" style="stroke: #A80036; stroke-width: 1.5;"/><text fill="#000000" font-family="sans-serif" font-size="14" lengthAdjust="spacingAndGlyphs" textLength="235" x="268.3631" y="324.9013">Consulter les informations du club</text><ellipse cx="386.2105" cy="410.6223" fill="#FEFECE" filter="url(#f1tjkpyojzif02)" rx="121.7105" ry="26.7421" style="stroke: #A80036; stroke-width: 1.5;"/><text fill="#000000" font-family="sans-serif" font-size="14" lengthAdjust="spacingAndGlyphs" textLength="223" x="274.7105" y="415.2707">Programmer une séance d'essai</text><ellipse cx="386.1802" cy="230.2162" fill="#FEFECE" filter="url(#f1tjkpyojzif02)" rx="122.1802" ry="26.836" style="stroke: #A80036; stroke-width: 1.5;"/><text fill="#000000" font-family="sans-serif" font-size="14" lengthAdjust="spacingAndGlyphs" textLength="224" x="274.1802" y="234.8647">Adhérer et Uploader son dossier</text><ellipse cx="386.0567" cy="594.3915" fill="#FEFECE" filter="url(#f1tjkpyojzif02)" rx="90.5567" ry="20.5113" style="stroke: #A80036; stroke-width: 1.5;"/><text fill="#000000" font-family="sans-serif" font-size="14" lengthAdjust="spacingAndGlyphs" textLength="155" x="308.5567" y="599.04">Consulter le calendrier</text><ellipse cx="386.0966" cy="505.5995" fill="#FEFECE" filter="url(#f1tjkpyojzif02)" rx="154.0966" ry="33.2193" style="stroke: #A80036; stroke-width: 1.5;"/><text fill="#000000" font-family="sans-serif" font-size="14" lengthAdjust="spacingAndGlyphs" textLength="291" x="240.5966" y="510.248">Demander un emprunt de matériel/logiciel</text><ellipse cx="918.3518" cy="1163.4506" fill="#FEFECE" filter="url(#f1tjkpyojzif02)" rx="88.3518" ry="20.0704" style="stroke: #A80036; stroke-width: 1.5;"/><text fill="#000000" font-family="sans-serif" font-size="14" lengthAdjust="spacingAndGlyphs" textLength="150" x="843.3518" y="1168.099">Valider  une Adhésion</text><ellipse cx="918.7471" cy="360.3296" fill="#FEFECE" filter="url(#f1tjkpyojzif02)" rx="70.2471" ry="16.4494" style="stroke: #A80036; stroke-width: 1.5;"/><text fill="#000000" font-family="sans-serif" font-size="14" lengthAdjust="spacingAndGlyphs" textLength="107" x="865.2471" y="364.9781">Authentification</text><ellipse cx="918.5368" cy="468.1876" fill="#FEFECE" filter="url(#f1tjkpyojzif02)" rx="87.0368" ry="19.8074" style="stroke: #A80036; stroke-width: 1.5;"/><text fill="#000000" font-family="sans-serif" font-size="14" lengthAdjust="spacingAndGlyphs" textLength="147" x="845.0368" y="472.836">Consulter par groupe</text><ellipse cx="918.3518" cy="543.4506" fill="#FEFECE" filter="url(#f1tjkpyojzif02)" rx="88.3518" ry="20.0704" style="stroke: #A80036; stroke-width: 1.5;"/><text fill="#000000" font-family="sans-serif" font-size="14" lengthAdjust="spacingAndGlyphs" textLength="150" x="843.3518" y="548.099">Consulter par journée</text><ellipse cx="386.0557" cy="674.2913" fill="#FEFECE" filter="url(#f1tjkpyojzif02)" rx="110.0557" ry="24.4111" style="stroke: #A80036; stroke-width: 1.5;"/><text fill="#000000" font-family="sans-serif" font-size="14" lengthAdjust="spacingAndGlyphs" textLength="198" x="287.0557" y="678.9398">Affecter un user à un groupe</text><ellipse cx="385.9996" cy="754.4801" fill="#FEFECE" filter="url(#f1tjkpyojzif02)" rx="90.9996" ry="20.5999" style="stroke: #A80036; stroke-width: 1.5;"/><text fill="#000000" font-family="sans-serif" font-size="14" lengthAdjust="spacingAndGlyphs" textLength="156" x="307.9996" y="759.1286">Transmettre le dossier</text><ellipse cx="1442.7133" cy="458.2229" fill="#FEFECE" filter="url(#f1tjkpyojzif02)" rx="79.7133" ry="18.3427" style="stroke: #A80036; stroke-width: 1.5;"/><text fill="#000000" font-family="sans-serif" font-size="14" lengthAdjust="spacingAndGlyphs" textLength="130" x="1377.7133" y="462.8713">Valider une licence</text><ellipse cx="385.9443" cy="834.5691" fill="#FEFECE" filter="url(#f1tjkpyojzif02)" rx="111.4443" ry="24.6889" style="stroke: #A80036; stroke-width: 1.5;"/><text fill="#000000" font-family="sans-serif" font-size="14" lengthAdjust="spacingAndGlyphs" textLength="201" x="285.4443" y="839.2175">Valider une demande de pret</text><ellipse cx="385.7894" cy="989.1381" fill="#FEFECE" filter="url(#f1tjkpyojzif02)" rx="74.2894" ry="17.2579" style="stroke: #A80036; stroke-width: 1.5;"/><text fill="#000000" font-family="sans-serif" font-size="14" lengthAdjust="spacingAndGlyphs" textLength="117" x="327.2894" y="993.7865">Gérer les coachs</text><ellipse cx="918.4883" cy="757.4779" fill="#FEFECE" filter="url(#f1tjkpyojzif02)" rx="80.9883" ry="18.5977" style="stroke: #A80036; stroke-width: 1.5;"/><text fill="#000000" font-family="sans-serif" font-size="14" lengthAdjust="spacingAndGlyphs" textLength="133" x="851.9883" y="762.1263">Ajouter des coachs</text><ellipse cx="918.6147" cy="681.5031" fill="#FEFECE" filter="url(#f1tjkpyojzif02)" rx="98.6147" ry="22.1229" style="stroke: #A80036; stroke-width: 1.5;"/><text fill="#000000" font-family="sans-serif" font-size="14" lengthAdjust="spacingAndGlyphs" textLength="173" x="832.1147" y="686.1516">Modifier des informations</text><ellipse cx="918.6335" cy="825.4038" fill="#FEFECE" filter="url(#f1tjkpyojzif02)" rx="46.1335" ry="14.5236" style="stroke: #A80036; stroke-width: 1.5;"/><text fill="#000000" font-family="sans-serif" font-size="14" lengthAdjust="spacingAndGlyphs" textLength="61" x="888.1335" y="830.0523">Licencier</text><ellipse cx="386.2278" cy="1070.2258" fill="#FEFECE" filter="url(#f1tjkpyojzif02)" rx="129.7278" ry="28.3456" style="stroke: #A80036; stroke-width: 1.5;"/><text fill="#000000" font-family="sans-serif" font-size="14" lengthAdjust="spacingAndGlyphs" textLength="240" x="266.2278" y="1074.8742">Affecter à une salle d'entrainement</text><ellipse cx="918.3614" cy="955.4038" fill="#FEFECE" filter="url(#f1tjkpyojzif02)" rx="58.8614" ry="14.5236" style="stroke: #A80036; stroke-width: 1.5;"/><text fill="#000000" font-family="sans-serif" font-size="14" lengthAdjust="spacingAndGlyphs" textLength="79" x="878.8614" y="960.0523">Du matériel</text><ellipse cx="918.6001" cy="890.3002" fill="#FEFECE" filter="url(#f1tjkpyojzif02)" rx="62.6001" ry="14.92" style="stroke: #A80036; stroke-width: 1.5;"/><text fill="#000000" font-family="sans-serif" font-size="14" lengthAdjust="spacingAndGlyphs" textLength="87" x="875.1001" y="894.9487">Des logiciels</text><ellipse cx="385.8318" cy="915.2466" fill="#FEFECE" filter="url(#f1tjkpyojzif02)" rx="92.3318" ry="20.8664" style="stroke: #A80036; stroke-width: 1.5;"/><text fill="#000000" font-family="sans-serif" font-size="14" lengthAdjust="spacingAndGlyphs" textLength="159" x="306.3318" y="919.895">Valider une commande</text><path d="M788,598.8802 L788,624.013 L1049,624.013 L1049,608.8802 L1039,598.8802 L788,598.8802 " fill="#FBFB77" filter="url(#f1tjkpyojzif02)" style="stroke: #A80036; stroke-width: 1.0;"/><path d="M1039,598.8802 L1039,608.8802 L1049,608.8802 L1039,598.8802 " fill="#FBFB77" style="stroke: #A80036; stroke-width: 1.0;"/><text fill="#000000" font-family="sans-serif" font-size="13" lengthAdjust="spacingAndGlyphs" textLength="240" x="794" y="615.9471">Si la commande est supérieur à 800€</text><ellipse cx="918.6802" cy="1434.2162" fill="#FEFECE" filter="url(#f1tjkpyojzif02)" rx="122.1802" ry="26.836" style="stroke: #A80036; stroke-width: 1.5;"/><text fill="#000000" font-family="sans-serif" font-size="14" lengthAdjust="spacingAndGlyphs" textLength="224" x="806.6802" y="1438.8647">Demander la location d'une salle</text><ellipse cx="385.8742" cy="1149.155" fill="#FEFECE" filter="url(#f1tjkpyojzif02)" rx="61.8742" ry="14.7748" style="stroke: #A80036; stroke-width: 1.5;"/><text fill="#000000" font-family="sans-serif" font-size="14" lengthAdjust="spacingAndGlyphs" textLength="85" x="343.3742" y="1153.8035">Commander</text><ellipse cx="918.3592" cy="1024.252" fill="#FEFECE" filter="url(#f1tjkpyojzif02)" rx="84.8592" ry="19.3718" style="stroke: #A80036; stroke-width: 1.5;"/><text fill="#000000" font-family="sans-serif" font-size="14" lengthAdjust="spacingAndGlyphs" textLength="142" x="847.3592" y="1028.9005">Fournir un catalogue</text><ellipse cx="385.8872" cy="1220.1576" fill="#FEFECE" filter="url(#f1tjkpyojzif02)" rx="91.8872" ry="20.7774" style="stroke: #A80036; stroke-width: 1.5;"/><text fill="#000000" font-family="sans-serif" font-size="14" lengthAdjust="spacingAndGlyphs" textLength="158" x="306.8872" y="1224.8061">Gérer un entrainement</text><ellipse cx="918.6838" cy="1233.4038" fill="#FEFECE" filter="url(#f1tjkpyojzif02)" rx="41.1838" ry="14.5236" style="stroke: #A80036; stroke-width: 1.5;"/><text fill="#000000" font-family="sans-serif" font-size="14" lengthAdjust="spacingAndGlyphs" textLength="54" x="891.6838" y="1238.0523">Modifier</text><ellipse cx="918.5269" cy="1093.4038" fill="#FEFECE" filter="url(#f1tjkpyojzif02)" rx="35.5269" ry="14.5236" style="stroke: #A80036; stroke-width: 1.5;"/><text fill="#000000" font-family="sans-serif" font-size="14" lengthAdjust="spacingAndGlyphs" textLength="46" x="895.5269" y="1098.0523">Retirer</text><path d="M812,1282.8802 L812,1308.013 L1025,1308.013 L1025,1292.8802 L1015,1282.8802 L812,1282.8802 " fill="#FBFB77" filter="url(#f1tjkpyojzif02)" style="stroke: #A80036; stroke-width: 1.0;"/><path d="M1015,1282.8802 L1015,1292.8802 L1025,1292.8802 L1015,1282.8802 " fill="#FBFB77" style="stroke: #A80036; stroke-width: 1.0;"/><text fill="#000000" font-family="sans-serif" font-size="13" lengthAdjust="spacingAndGlyphs" textLength="192" x="818" y="1299.9471">Si la salle n'est pas déjà louée</text><ellipse cx="1442.6482" cy="1295.4038" fill="#FEFECE" filter="url(#f1tjkpyojzif02)" rx="37.6482" ry="14.5236" style="stroke: #A80036; stroke-width: 1.5;"/><text fill="#000000" font-family="sans-serif" font-size="14" lengthAdjust="spacingAndGlyphs" textLength="49" x="1418.1482" y="1300.0523">Ajouter</text><ellipse cx="918.4472" cy="1357.4038" fill="#FEFECE" filter="url(#f1tjkpyojzif02)" rx="57.4472" ry="14.5236" style="stroke: #A80036; stroke-width: 1.5;"/><text fill="#000000" font-family="sans-serif" font-size="14" lengthAdjust="spacingAndGlyphs" textLength="77" x="879.9472" y="1362.0523">Être convié</text><ellipse cx="386.1669" cy="1307.4136" fill="#FEFECE" filter="url(#f1tjkpyojzif02)" rx="140.6669" ry="30.5334" style="stroke: #A80036; stroke-width: 1.5;"/><text fill="#000000" font-family="sans-serif" font-size="14" lengthAdjust="spacingAndGlyphs" textLength="263" x="254.6669" y="1312.062">Faire participer un groupe de licenciés</text><ellipse cx="386.0287" cy="1417.4859" fill="#FEFECE" filter="url(#f1tjkpyojzif02)" rx="211.0287" ry="44.6057" style="stroke: #A80036; stroke-width: 1.5;"/><text fill="#000000" font-family="sans-serif" font-size="14" lengthAdjust="spacingAndGlyphs" textLength="408" x="182.0287" y="1422.1344">Envoyer des invitations aux licenciés inscrits pour le tournoi</text><!--MD5=[a5416e482b9e7af590d0558f72cb1d22]
entity Gamer--><ellipse cx="29" cy="378.8802" fill="#FEFECE" filter="url(#f1tjkpyojzif02)" rx="8" ry="8" style="stroke: #A80036; stroke-width: 2.0;"/><path d="M29,386.8802 L29,413.8802 M16,394.8802 L42,394.8802 M29,413.8802 L16,428.8802 M29,413.8802 L42,428.8802 " fill="none" filter="url(#f1tjkpyojzif02)" style="stroke: #A80036; stroke-width: 2.0;"/><text fill="#000000" font-family="sans-serif" font-size="14" lengthAdjust="spacingAndGlyphs" textLength="46" x="6" y="448.8753">Gamer</text><!--MD5=[97ab183161fd5d1db7fba7485cf76add]
entity Admin--><ellipse cx="29" cy="883.8802" fill="#FEFECE" filter="url(#f1tjkpyojzif02)" rx="8" ry="8" style="stroke: #A80036; stroke-width: 2.0;"/><path d="M29,891.8802 L29,918.8802 M16,899.8802 L42,899.8802 M29,918.8802 L16,933.8802 M29,918.8802 L42,933.8802 " fill="none" filter="url(#f1tjkpyojzif02)" style="stroke: #A80036; stroke-width: 2.0;"/><text fill="#000000" font-family="sans-serif" font-size="14" lengthAdjust="spacingAndGlyphs" textLength="43" x="7.5" y="953.8753">Admin</text><!--MD5=[4c9f180352224aa8a04fa1c6d9da0c1c]
entity Coach--><ellipse cx="29" cy="1492.8802" fill="#FEFECE" filter="url(#f1tjkpyojzif02)" rx="8" ry="8" style="stroke: #A80036; stroke-width: 2.0;"/><path d="M29,1500.8802 L29,1527.8802 M16,1508.8802 L42,1508.8802 M29,1527.8802 L16,1542.8802 M29,1527.8802 L42,1542.8802 " fill="none" filter="url(#f1tjkpyojzif02)" style="stroke: #A80036; stroke-width: 2.0;"/><text fill="#000000" font-family="sans-serif" font-size="14" lengthAdjust="spacingAndGlyphs" textLength="44" x="7" y="1562.8753">Coach</text><!--MD5=[bf48fe81e8bed8824d32c9885863b80a]
entity Federation--><rect fill="#FEFECE" filter="url(#f1tjkpyojzif02)" height="36.2969" style="stroke: #A80036; stroke-width: 1.5;" width="94" x="1395.5" y="61.3802"/><text fill="#000000" font-family="sans-serif" font-size="14" lengthAdjust="spacingAndGlyphs" textLength="74" x="1405.5" y="84.3753">Federation</text><!--MD5=[02a86e8516a095ffb3d05c8b708921d1]
entity Proprio--><rect fill="#FEFECE" filter="url(#f1tjkpyojzif02)" height="36.2969" style="stroke: #A80036; stroke-width: 1.5;" width="169" x="1121.5" y="1477.3802"/><text fill="#000000" font-family="sans-serif" font-size="14" lengthAdjust="spacingAndGlyphs" textLength="149" x="1131.5" y="1500.3753">Propriétaire de locaux</text><!--MD5=[8d9ac0344b90cd2c5bddab8f4353e13d]
entity Fournisseurs--><rect fill="#FEFECE" filter="url(#f1tjkpyojzif02)" height="36.2969" style="stroke: #A80036; stroke-width: 1.5;" width="110" x="1151" y="61.3802"/><text fill="#000000" font-family="sans-serif" font-size="14" lengthAdjust="spacingAndGlyphs" textLength="90" x="1161" y="84.3753">Fournisseurs</text><!--MD5=[5f40e50017e60a8f6a1be2a18736ebc8]
entity Orga--><rect fill="#FEFECE" filter="url(#f1tjkpyojzif02)" height="36.2969" style="stroke: #A80036; stroke-width: 1.5;" width="192" x="1110" y="132.3802"/><text fill="#000000" font-family="sans-serif" font-size="14" lengthAdjust="spacingAndGlyphs" textLength="172" x="1120" y="155.3753">Organisateur de tournois</text><!--MD5=[34b922360a8f35e8779c51ac9730e19f]
link Gamer to Consulter les informations du club--><path d="M52.2097,397.4451 C61.2882,392.8012 71.9245,387.8581 82,384.3802 C146.1109,362.2502 220.5894,346.4188 279.781,336.0378 " fill="none" id="Gamer-Consulter les informations du club" style="stroke: #A80036; stroke-width: 1.0;"/><!--MD5=[e8069484c0bdd4950570c3ace894d722]
link Gamer to Programmer une séance d'essai--><path d="M52.1487,410.3802 C94.4845,410.3802 187.1202,410.3802 264.0945,410.3802 " fill="none" id="Gamer-Programmer une séance d'essai" style="stroke: #A80036; stroke-width: 1.0;"/><!--MD5=[a67d353bd73cc6ee268e882a32324a23]
link Gamer to Adhérer et Uploader son dossier--><path d="M52.128,377.8075 C76.7333,345.8613 118.7178,298.5374 167,274.3802 C199.861,257.9387 238.3973,247.6404 273.9062,241.1901 " fill="none" id="Gamer-Adhérer et Uploader son dossier" style="stroke: #A80036; stroke-width: 1.0;"/><!--MD5=[f5be3d626bdceb83db5a71f999b8543c]
link Gamer to Consulter le calendrier--><path d="M52.0018,445.1535 C76.3608,478.9963 118.0227,529.0558 167,555.3802 C206.4595,576.589 255.1244,586.5849 296.5504,591.1749 " fill="none" id="Gamer-Consulter le calendrier" style="stroke: #A80036; stroke-width: 1.0;"/><!--MD5=[50a1414bc043e40f00617f256c32eaf3]
link Gamer to Demander un emprunt de matériel/logiciel--><path d="M52.2706,418.4272 C79.5664,427.7196 126.2698,443.1637 167,454.3802 C202.7553,464.2267 242.132,473.7885 277.5186,481.9209 " fill="none" id="Gamer-Demander un emprunt de matériel/logiciel" style="stroke: #A80036; stroke-width: 1.0;"/><!--MD5=[f3861f13a3038e2485bb9a0a521e02df]
reverse link Adhérer et Uploader son dossier to Valider  une Adhésion--><path d="M510.877,236.607 C541.5776,243.1891 572.6013,254.7007 597,274.3802 C648.8794,316.2251 613.1746,362.0532 658,411.3802 C681.6907,437.4501 707.8949,420.7848 727,450.3802 C808.6845,576.9164 692.2716,1009.1054 788,1125.3802 C800.3737,1140.4097 818.3252,1149.6986 836.9744,1155.3862 " fill="none" id="Adhérer et Uploader son dossier&lt;-Valider  une Adhésion" style="stroke: #A80036; stroke-width: 1.0; stroke-dasharray: 7.0,7.0;"/><polygon fill="#A80036" points="505.9536,235.5925,513.9609,241.3269,510.8507,236.6018,515.5758,233.4915,505.9536,235.5925" style="stroke: #A80036; stroke-width: 1.0;"/><text fill="#000000" font-family="sans-serif" font-size="13" lengthAdjust="spacingAndGlyphs" textLength="67" x="659" y="407.4471">«extends»</text><!--MD5=[20492e14f641872a5f9820520848a132]
link Demander un emprunt de matériel/logiciel to Authentification--><path d="M514.9512,487.1975 C543.2589,479.7335 572.1671,469.2113 597,454.3802 C631.857,433.5624 621.7936,404.7511 658,386.3802 C717.0937,356.3966 793.3711,352.1323 848.0922,354.0173 " fill="none" id="Demander un emprunt de matériel/logiciel-&gt;Authentification" style="stroke: #A80036; stroke-width: 1.0; stroke-dasharray: 7.0,7.0;"/><polygon fill="#A80036" points="853.3192,354.2182,844.4796,349.8753,848.3229,354.0261,844.1721,357.8694,853.3192,354.2182" style="stroke: #A80036; stroke-width: 1.0;"/><text fill="#000000" font-family="sans-serif" font-size="13" lengthAdjust="spacingAndGlyphs" textLength="61" x="662" y="359.4471">«include»</text><!--MD5=[fe125f62a386835a7c484c4956c7fc10]
reverse link Consulter le calendrier to Consulter par groupe--><path d="M491.4203,584.455 C526.0458,578.7142 564.0731,569.6591 597,555.3802 C627.9088,541.9765 626.9397,523.4289 658,510.3802 C713.4323,487.0927 780.499,476.644 832.6995,471.9906 " fill="none" id="Consulter le calendrier&lt;-Consulter par groupe" style="stroke: #A80036; stroke-width: 1.0;"/><polygon fill="none" points="492.3122,591.3996,471.4907,587.4666,490.2203,577.5568,492.3122,591.3996" style="stroke: #A80036; stroke-width: 1.0;"/><!--MD5=[9d4672c34330524389bf962789285655]
reverse link Consulter le calendrier to Consulter par journée--><path d="M496.8011,592.9296 C563.6508,591.1236 650.4245,587.1346 727,578.3802 C769.8126,573.4857 817.4816,564.7848 854.5498,557.2831 " fill="none" id="Consulter le calendrier&lt;-Consulter par journée" style="stroke: #A80036; stroke-width: 1.0;"/><polygon fill="none" points="496.8936,599.9293,476.7277,593.4228,496.5496,585.9335,496.8936,599.9293" style="stroke: #A80036; stroke-width: 1.0;"/><!--MD5=[5defe626c0d62e5935512d7a209c17a8]
link Consulter le calendrier to Authentification--><path d="M469.7512,586.5354 C509.3474,580.9226 556.6682,571.406 597,555.3802 C691.2819,517.9174 701.0911,482.7194 788,430.3802 C819.8544,411.1965 857.3698,391.3458 883.9819,377.7051 " fill="none" id="Consulter le calendrier-&gt;Authentification" style="stroke: #A80036; stroke-width: 1.0; stroke-dasharray: 7.0,7.0;"/><polygon fill="#A80036" points="888.4879,375.4013,878.6536,375.9369,884.036,377.6774,882.2955,383.0599,888.4879,375.4013" style="stroke: #A80036; stroke-width: 1.0;"/><text fill="#000000" font-family="sans-serif" font-size="13" lengthAdjust="spacingAndGlyphs" textLength="61" x="662" y="469.4471">«include»</text><!--MD5=[85aeb5a72ad5272ec9eaa33821f7e3a7]
link Admin to Affecter un user à un groupe--><path d="M37.1891,873.7847 C46.7751,829.0545 63.686,761.8535 82,743.3802 C132.2956,692.6472 211.548,675.8876 276.5236,671.5548 " fill="none" id="Admin-Affecter un user à un groupe" style="stroke: #A80036; stroke-width: 1.0;"/><!--MD5=[355b726c940e28b800953af946d6ffa5]
link Admin to Transmettre le dossier--><path d="M50.6883,887.4418 C75.3297,858.0315 118.4731,813.1732 167,792.3802 C208.3225,774.6742 257.3891,765.2138 298.5938,760.161 " fill="none" id="Admin-Transmettre le dossier" style="stroke: #A80036; stroke-width: 1.0;"/><!--MD5=[3a7ef9233caa021caafe23cde4e6365f]
link Admin to Valider  une Adhésion--><path d="M32.7006,957.1368 C44.2149,1076.3733 83.7356,1414.0328 167,1479.3802 C317.3396,1597.3695 420.7168,1553.1886 597,1479.3802 C672.9524,1447.5795 681.4103,1415.9486 727,1347.3802 C765.9367,1288.8182 735.5579,1248.2354 788,1201.3802 C803.0452,1187.9378 822.5974,1179.2358 841.9678,1173.6072 " fill="none" id="Admin-Valider  une Adhésion" style="stroke: #A80036; stroke-width: 1.0;"/><!--MD5=[b34d6f5e31b72f68db46c1ccc8217905]
reverse link Valider  une Adhésion to Valider une licence--><path d="M997.2975,1150.7095 C1015.5586,1145.1055 1034.0118,1137.0264 1049,1125.3802 C1288.1387,939.5634 1411.0946,564.3534 1437.1825,476.896 " fill="none" id="Valider  une Adhésion&lt;-Valider une licence" style="stroke: #A80036; stroke-width: 1.0; stroke-dasharray: 7.0,7.0;"/><polygon fill="#A80036" points="992.1551,1152.2253,1001.9189,1153.5171,996.951,1150.8115,999.6567,1145.8436,992.1551,1152.2253" style="stroke: #A80036; stroke-width: 1.0;"/><text fill="#000000" font-family="sans-serif" font-size="13" lengthAdjust="spacingAndGlyphs" textLength="67" x="1172.5" y="801.4471">«extends»</text><!--MD5=[5207add501af8682928d9489676fb3bd]
link Valider une licence to Federation--><path d="M1442.5,439.8744 C1442.5,325.8118 1442.5,211.7492 1442.5,97.6866 " fill="none" id="Valider une licence-Federation" style="stroke: #A80036; stroke-width: 1.0;"/><!--MD5=[7f7f0d045da6133a2dd599de9b8e233b]
link Transmettre le dossier to Federation--><path d="M472.0494,761.0527 C515.4031,759.5235 565.3489,749.4591 597,716.3802 C706.7562,601.673 533.7418,8.3802 692.5,8.3802 C692.5,8.3802 692.5,8.3802 1206,8.3802 C1279.521,8.3802 1360.6754,40.2447 1406.2398,61.2802 " fill="none" id="Transmettre le dossier-Federation" style="stroke: #A80036; stroke-width: 1.0;"/><!--MD5=[2b6c4d809717b333d4539f6c49fc5def]
link Admin to Valider une demande de pret--><path d="M50.6023,903.0907 C59.9982,898.1955 71.2897,892.9001 82,889.3802 C148.3668,867.5688 225.8956,853.7146 286.048,845.3667 " fill="none" id="Admin-Valider une demande de pret" style="stroke: #A80036; stroke-width: 1.0;"/><!--MD5=[f4e9fe40759a47a8700b21f75f17d827]
link Valider une demande de pret to Demander un emprunt de matériel/logiciel--><path d="M277.4792,840.172 C220.5901,836.4988 156.8684,819.9795 128,768.8802 C119.6935,754.1771 82.9629,643.1414 167,556.3802 C185.206,537.5841 208.8926,525.1345 233.9416,516.9967 " fill="none" id="Valider une demande de pret-&gt;Demander un emprunt de matériel/logiciel" style="stroke: #A80036; stroke-width: 1.0; stroke-dasharray: 7.0,7.0;"/><polygon fill="#A80036" points="238.9683,515.426,229.1849,514.2924,234.1959,516.9173,231.571,521.9283,238.9683,515.426" style="stroke: #A80036; stroke-width: 1.0;"/><text fill="#000000" font-family="sans-serif" font-size="13" lengthAdjust="spacingAndGlyphs" textLength="61" x="83" y="764.9471">«include»</text><!--MD5=[1db95cd608626af568f727ebfa49ee0f]
link Admin to Gérer les coachs--><path d="M50.8104,922.1566 C77.8631,930.3825 125.4922,944.2805 167,953.3802 C218.5631,964.6843 277.6574,974.1996 321.455,980.6033 " fill="none" id="Admin-Gérer les coachs" style="stroke: #A80036; stroke-width: 1.0;"/><!--MD5=[b698161307cb9352ff9e56cadc465945]
reverse link Gérer les coachs to Ajouter des coachs--><path d="M478.7961,992.3201 C518.7381,989.1515 563.7843,979.1271 597,953.3802 C622.7868,933.3918 609.1162,913.6687 627,886.3802 C638.209,869.2767 641.4618,864.4077 658,852.3802 C709.3146,815.0615 728.3451,814.9944 788,793.3802 C811.9751,784.6936 839.0693,776.9035 862.332,770.8105 " fill="none" id="Gérer les coachs&lt;-Ajouter des coachs" style="stroke: #A80036; stroke-width: 1.0;"/><polygon fill="none" points="479.1128,999.313,458.7677,993.3905,478.3656,985.333,479.1128,999.313" style="stroke: #A80036; stroke-width: 1.0;"/><!--MD5=[46168e80ef6f8a915ee673b6fa88e773]
reverse link Gérer les coachs to Modifier des informations--><path d="M478.2138,993.097 C518.5449,990.1684 564.0645,980.1182 597,953.3802 C625.1932,930.4922 611.1195,910.0379 627,877.3802 C638.9337,852.8389 640.1087,844.9859 658,824.3802 C706.329,768.7189 722.7426,755.6637 788,721.3802 C807.1948,711.2961 829.3397,703.3105 849.8737,697.2116 " fill="none" id="Gérer les coachs&lt;-Modifier des informations" style="stroke: #A80036; stroke-width: 1.0;"/><polygon fill="none" points="478.2963,1000.1005,457.9966,994.024,477.655,986.1152,478.2963,1000.1005" style="stroke: #A80036; stroke-width: 1.0;"/><!--MD5=[3c32655efdcb9d38d2c45a538cfc62a3]
reverse link Gérer les coachs to Licencier--><path d="M479.7556,991.2958 C519.1669,987.8232 563.5329,977.8441 597,953.3802 C620.4296,936.2535 604.1543,913.2785 627,895.3802 C699.21,838.8079 810.1612,826.953 872.2812,825.057 " fill="none" id="Gérer les coachs&lt;-Licencier" style="stroke: #A80036; stroke-width: 1.0;"/><polygon fill="none" points="480.0823,998.289,459.6816,992.561,479.2016,984.3168,480.0823,998.289" style="stroke: #A80036; stroke-width: 1.0;"/><!--MD5=[a86205534e3d0279db8898ac22fa528a]
link Admin to Affecter à une salle d'entrainement--><path d="M50.697,937.9055 C76.166,962.9662 120.8225,1002.7658 167,1024.3802 C199.6357,1039.656 237.3702,1049.901 272.225,1056.7554 " fill="none" id="Admin-Affecter à une salle d'entrainement" style="stroke: #A80036; stroke-width: 1.0;"/><!--MD5=[07eec5ae7497aded9b176d34c0ff0925]
reverse link Affecter à une salle d'entrainement to Du matériel--><path d="M498.0747,1046.1763 C614.812,1020.9654 791.8798,982.7254 873.903,965.0115 " fill="none" id="Affecter à une salle d'entrainement&lt;-Du matériel" style="stroke: #A80036; stroke-width: 1.0;"/><polygon fill="none" points="499.4773,1053.0347,478.4503,1050.4144,496.5219,1039.3502,499.4773,1053.0347" style="stroke: #A80036; stroke-width: 1.0;"/><!--MD5=[f395c8ae84869180d5a85437991e72b8]
reverse link Affecter à une salle d'entrainement to Des logiciels--><path d="M510.111,1049.2054 C539.0595,1042.6585 569.4628,1034.4488 597,1024.3802 C608.2734,1020.2583 776.7962,927.6878 788,923.3802 C814.2844,913.2746 844.7383,905.3709 869.6128,899.8353 " fill="none" id="Affecter à une salle d'entrainement&lt;-Des logiciels" style="stroke: #A80036; stroke-width: 1.0;"/><polygon fill="none" points="511.3826,1056.0921,490.3552,1053.4747,508.4254,1042.408,511.3826,1056.0921" style="stroke: #A80036; stroke-width: 1.0;"/><!--MD5=[1bb44f149e3a86de7fa90e667e973287]
link Admin to Valider une commande--><path d="M50.528,915.3802 C97.4111,915.3802 211.1148,915.3802 293.1644,915.3802 " fill="none" id="Admin-Valider une commande" style="stroke: #A80036; stroke-width: 1.0;"/><!--MD5=[f1da323fb248579f574a5090c11b90ac]
link commande to Demander la location d'une salle--><path d="M798.8251,624.0477 C781.814,631.5295 766.9203,642.6143 757.5,658.8802 C717.7967,727.4353 717.7967,1303.3251 757.5,1371.8802 C769.9155,1393.3179 791.0875,1407.4281 814.0705,1416.7075 " fill="none" id="commande-&gt;Demander la location d'une salle" style="stroke: #A80036; stroke-width: 1.0; stroke-dasharray: 7.0,7.0;"/><polygon fill="#A80036" points="818.9998,1418.6152,812.0502,1411.6364,814.3369,1416.8105,809.1627,1419.0971,818.9998,1418.6152" style="stroke: #A80036; stroke-width: 1.0;"/><!--MD5=[4a02b96d1cfbbbedcbdecf621a7b9eae]
link Valider une commande to commande--><path d="M475.9413,920.4583 C517.9264,917.9329 565.4765,907.2829 597,876.3802 C644.3055,830.0063 587.7461,783.7419 627,730.3802 C673.0757,667.745 757.9505,637.9753 824.2794,623.8862 " fill="none" id="Valider une commande-commande" style="stroke: #A80036; stroke-width: 1.0; stroke-dasharray: 7.0,7.0;"/><text fill="#000000" font-family="sans-serif" font-size="13" lengthAdjust="spacingAndGlyphs" textLength="60" x="662.5" y="651.4471">«extend»</text><!--MD5=[7bba1817933687c2e8ff0b26182032b5]
link Coach to Demander la location d'une salle--><path d="M43.4918,1566.3375 C51.853,1583.8329 64.2991,1602.3777 82,1612.3802 C343.5702,1760.1905 483.4871,1734.4849 758,1612.3802 C827.9547,1581.264 880.2641,1502.9223 904.1546,1461.3164 " fill="none" id="Coach-Demander la location d'une salle" style="stroke: #A80036; stroke-width: 1.0;"/><!--MD5=[6707da6bc5b5cb46178161c331ffc4ee]
link Demander la location d'une salle to Proprio--><path d="M1006.7133,1453.0968 C1043.1921,1460.8366 1085.3092,1469.7728 1121.4008,1477.4305 " fill="none" id="Demander la location d'une salle-Proprio" style="stroke: #A80036; stroke-width: 1.0;"/><!--MD5=[72948a82c38a49fc756c3c197bfe6996]
link Coach to Commander--><path d="M32.9938,1482.6272 C38.8131,1434.5802 52.3541,1354.2256 82,1291.3802 C108.3597,1235.5013 113.661,1212.5608 167,1181.3802 C214.9341,1153.3592 278.5301,1146.7758 324.835,1146.3567 " fill="none" id="Coach-Commander" style="stroke: #A80036; stroke-width: 1.0;"/><!--MD5=[4f7017c39ccf51d56417695e765c7004]
reverse link Commander to Du matériel--><path d="M468.3132,1148.3623 C508.9091,1144.9798 557.505,1136.4557 597,1116.3802 C631.1788,1099.0069 627.1026,1078.082 658,1055.3802 C710.5459,1016.7722 727.0028,1010.4235 788,987.3802 C814.8413,977.2402 846.0157,969.4569 871.1631,964.1065 " fill="none" id="Commander&lt;-Du matériel" style="stroke: #A80036; stroke-width: 1.0;"/><polygon fill="none" points="468.6202,1155.3571,448.2047,1149.6819,467.7034,1141.3871,468.6202,1155.3571" style="stroke: #A80036; stroke-width: 1.0;"/><!--MD5=[8b076319a1aa756c92326f75c64e49c5]
reverse link Commander to Des logiciels--><path d="M466.9394,1151.7481 C508.6544,1149.4234 558.6701,1140.8243 597,1116.3802 C638.0529,1090.1995 621.9203,1058.0761 658,1025.3802 C683.785,1002.0136 699.397,1009.5684 727,988.3802 C758.4268,964.2569 753.8657,943.4906 788,923.3802 C810.6516,910.0349 838.5966,902.0459 862.8082,897.2828 " fill="none" id="Commander&lt;-Des logiciels" style="stroke: #A80036; stroke-width: 1.0;"/><polygon fill="none" points="467.1369,1158.7453,446.9099,1152.4313,466.6596,1144.7535,467.1369,1158.7453" style="stroke: #A80036; stroke-width: 1.0;"/><!--MD5=[324a5a6c4ebe9388485d56ffbf27bdb7]
link Commander to Fournir un catalogue--><path d="M441.443,1142.6402 C484.2057,1136.9769 544.6886,1127.9549 597,1116.3802 C683.2521,1097.2956 703.0612,1085.6506 788,1061.3802 C811.4718,1054.6734 837.3322,1047.3314 859.7982,1040.9684 " fill="none" id="Commander-&gt;Fournir un catalogue" style="stroke: #A80036; stroke-width: 1.0; stroke-dasharray: 7.0,7.0;"/><polygon fill="#A80036" points="864.8348,1039.5422,855.0854,1038.1459,860.024,1040.9046,857.2653,1045.8432,864.8348,1039.5422" style="stroke: #A80036; stroke-width: 1.0;"/><text fill="#000000" font-family="sans-serif" font-size="13" lengthAdjust="spacingAndGlyphs" textLength="61" x="662" y="1076.4471">«include»</text><!--MD5=[0353d91c73487783a89ddb0baf70eae0]
link Fournir un catalogue to Fournisseurs--><path d="M998.8675,1017.9989 C1018.1198,1012.5085 1036.6541,1003.1363 1049,987.3802 C1108.1773,911.8565 1022.2791,201.7658 1079,124.3802 C1095.6634,101.646 1124.778,90.3436 1150.9303,84.7481 " fill="none" id="Fournir un catalogue-Fournisseurs" style="stroke: #A80036; stroke-width: 1.0;"/><!--MD5=[8998371abe41620fa987609d78916089]
link Coach to Gérer un entrainement--><path d="M37.1209,1482.6762 C51.4632,1421.6318 87.6129,1309.7475 167,1259.3802 C204.501,1235.5876 252.5034,1225.3011 294.0046,1221.1875 " fill="none" id="Coach-Gérer un entrainement" style="stroke: #A80036; stroke-width: 1.0;"/><!--MD5=[99764b1d887ea9d90c0265a416cf0676]
reverse link Gérer un entrainement to Modifier--><path d="M497.7961,1223.1095 C616.2041,1226.0002 796.9114,1230.4118 877.3752,1232.3762 " fill="none" id="Gérer un entrainement&lt;-Modifier" style="stroke: #A80036; stroke-width: 1.0;"/><polygon fill="none" points="497.3632,1230.1011,477.54,1222.615,497.7049,1216.1053,497.3632,1230.1011" style="stroke: #A80036; stroke-width: 1.0;"/><!--MD5=[16a85d640defd5a1260b8420f6f968c4]
reverse link Gérer un entrainement to Retirer--><path d="M481.449,1204.8745 C517.7934,1198.412 559.4795,1190.3233 597,1181.3802 C683.0517,1160.8696 702.5757,1148.3643 788,1125.3802 C821.9021,1116.2586 861.0456,1106.8023 887.5506,1100.5574 " fill="none" id="Gérer un entrainement&lt;-Retirer" style="stroke: #A80036; stroke-width: 1.0;"/><polygon fill="none" points="482.4926,1211.7981,461.5869,1208.3407,480.0858,1198.0066,482.4926,1211.7981" style="stroke: #A80036; stroke-width: 1.0;"/><!--MD5=[238df870f5af2b46eabaeffe63ad4bf2]
link location to Ajouter--><path d="M1025.1708,1295.3802 C1142.921,1295.3802 1326.1827,1295.3802 1404.7054,1295.3802 " fill="none" id="location-Ajouter" style="stroke: #A80036; stroke-width: 1.0;"/><!--MD5=[229ffc342d89b443b9afd058e2911cc2]
reverse link Gérer un entrainement to location--><path d="M484.519,1234.2561 C583.3034,1248.1694 734.0568,1269.4023 829.3762,1282.8276 " fill="none" id="Gérer un entrainement&lt;-location" style="stroke: #A80036; stroke-width: 1.0;"/><polygon fill="none" points="483.4004,1241.1678,464.5722,1231.4467,485.353,1227.3046,483.4004,1241.1678" style="stroke: #A80036; stroke-width: 1.0;"/><!--MD5=[8d5963b6d5046bee49e125953506a79b]
link Coach to Être convié--><path d="M51.0197,1533.9548 C147.7261,1574.3679 539.6592,1720.8395 758,1541.3802 C811.1961,1497.6571 740.4322,1439.1682 788,1389.3802 C806.693,1369.8147 835.24,1361.4102 860.8728,1358.0692 " fill="none" id="Coach-Être convié" style="stroke: #A80036; stroke-width: 1.0;"/><!--MD5=[76fda7724baa5afc2c0dcfc3bd640986]
link Être convié to Orga--><path d="M976.0768,1357.9919 C1002.3466,1355.0371 1031.4446,1346.5819 1049,1325.3802 C1212.6381,1127.7539 944.8657,368.758 1110,172.3802 C1111.1005,171.0715 1112.2614,169.8315 1113.4765,168.6568 " fill="none" id="Être convié-Orga" style="stroke: #A80036; stroke-width: 1.0;"/><!--MD5=[0aaf5c0a0bfc2406e1f7fcfb0887b287]
link Coach to Faire participer un groupe de licenciés--><path d="M51.0989,1483.9244 C74.6197,1444.8269 115.5208,1387.0061 167,1355.3802 C194.4439,1338.5202 227.028,1327.5446 258.5619,1320.4109 " fill="none" id="Coach-Faire participer un groupe de licenciés" style="stroke: #A80036; stroke-width: 1.0;"/><!--MD5=[86e22765ef4afabcdd15d6dea87d234d]
link Faire participer un groupe de licenciés to Être convié--><path d="M515.2432,1319.5157 C624.5844,1329.7825 776.2985,1344.028 858.9679,1351.7903 " fill="none" id="Faire participer un groupe de licenciés-&gt;Être convié" style="stroke: #A80036; stroke-width: 1.0; stroke-dasharray: 7.0,7.0;"/><polygon fill="#A80036" points="864.3122,1352.2922,855.7257,1347.4681,859.3341,1351.8246,854.9776,1355.4331,864.3122,1352.2922" style="stroke: #A80036; stroke-width: 1.0;"/><text fill="#000000" font-family="sans-serif" font-size="13" lengthAdjust="spacingAndGlyphs" textLength="58" x="663.5" y="1329.4471">«nclude»</text><!--MD5=[ff014801eabdb1cc00741ddb0a986994]
link Coach to Envoyer des invitations aux licenciés inscrits pour le tournoi--><path d="M51.0963,1526.8085 C74.6525,1528.7925 112.9038,1530.2714 145,1523.3802 C203.8792,1510.7386 265.9862,1483.0334 312.4037,1459.1179 " fill="none" id="Coach-Envoyer des invitations aux licenciés inscrits pour le tournoi" style="stroke: #A80036; stroke-width: 1.0;"/><!--MD5=[5c649b510d59bf0daa81357ac09db23c]
@startuml
left to right direction
skinparam packageStyle rectangle

actor Gamer
actor Admin
actor Coach

agent Federation 
agent "Propriétaire de locaux" as Proprio
agent Fournisseurs
agent "Organisateur de tournois" as Orga

rectangle "Club Esport" {
  
  
  Gamer - - (Consulter les informations du club)
  Gamer - - (Programmer une séance d'essai)
  Gamer - - (Adhérer et Uploader son dossier)
  Gamer - - (Consulter le calendrier)
  Gamer - - (Demander un emprunt de matériel/logiciel)  
  (Valider  une Adhésion) .up.> (Adhérer et Uploader son dossier):<<extends>>
  (Demander un emprunt de matériel/logiciel) .down.> (Authentification):<<include>>
  (Consulter par groupe)-up-|>(Consulter le calendrier)
  (Consulter par journée)-up-|>(Consulter le calendrier)
  (Consulter le calendrier) .down.> (Authentification):<<include>>
  
  Admin - - (Affecter un user à un groupe)
  Admin - - (Transmettre le dossier)
  Admin - - (Valider  une Adhésion)
  (Valider une licence) .up.> (Valider  une Adhésion):<<extends>>
  (Valider une licence) -right- Federation 

  (Transmettre le dossier)- -Federation
  Admin - - (Valider une demande de pret) 
  (Valider une demande de pret).>(Demander un emprunt de matériel/logiciel):<<include>>
  Admin - - (Gérer les coachs)
  (Ajouter des coachs)-up-|>(Gérer les coachs)
  (Modifier des informations)-up-|>(Gérer les coachs)
  (Licencier)-up-|>(Gérer les coachs)
  Admin- -(Affecter à une salle d'entrainement)
  (Du matériel)-up-|>(Affecter à une salle d'entrainement)
  (Des logiciels)-up-|>(Affecter à une salle d'entrainement)
  Admin- -(Valider une commande)
  note "Si la commande est supérieur à 800€" as commande
  commande.>(Demander la location d'une salle)
  commande .up. (Valider une commande):<<extend>>
  Coach - - (Demander la location d'une salle)
  (Demander la location d'une salle) - - Proprio
  Coach - - (Commander)
  (Du matériel)-up-|>(Commander)
  (Des logiciels)-up-|>(Commander)
  (Commander) .down.> (Fournir un catalogue):<<include>>
  (Fournir un catalogue) - - Fournisseurs
    
  Coach - - (Gérer un entrainement)
  

  (Modifier)-up-|>(Gérer un entrainement)
  (Retirer)-up-|>(Gérer un entrainement)
  note "Si la salle n'est pas déjà louée" as location
  (Ajouter) -up- location
  location -up-|>(Gérer un entrainement)
  Coach - - (Être convié)
  (Être convié) - - Orga
  Coach - - (Faire participer un groupe de licenciés)
  (Faire participer un groupe de licenciés).down.>(Être convié):<<nclude>>
  Coach- - (Envoyer des invitations aux licenciés inscrits pour le tournoi)
  
  }
@enduml

PlantUML version 1.2019.12(Sun Nov 03 10:24:54 UTC 2019)
(GPL source distribution)
Java Runtime: OpenJDK Runtime Environment
JVM: OpenJDK 64-Bit Server VM
Java Version: 1.8.0_232-heroku-b09
Operating System: Linux
Default Encoding: UTF-8
Language: en
Country: US
--></g></svg>